{
  "source": "C:\\Users\\Peter\\Desktop\\stuff\\MIUN\\quantitative_research\\video_compression\\videos\\BVI-HD\\BVI-HD_CDVL_videos\\ORIG\\DiverFishAndRock_1920x1080_30fps.mp4",
  "output": "C:\\Users\\Peter\\Desktop\\stuff\\MIUN\\quantitative_research\\video_compression\\compressed_videos\\BVI-HD\\h264\\8\\DiverFishAndRock_1920x1080_30fps_h264.mp4",
  "codec": "h264",
  "ok": "Input #0, mov,mp4,m4a,3gp,3g2,mj2, from 'C:\\Users\\Peter\\Desktop\\stuff\\MIUN\\quantitative_research\\video_compression\\videos\\BVI-HD\\BVI-HD_CDVL_videos\\ORIG\\DiverFishAndRock_1920x1080_30fps.mp4':\n  Metadata:\n    major_brand     : isom\n    minor_version   : 512\n    compatible_brands: isomiso2avc1mp41\n    encoder         : Lavf54.28.101\n  Duration: 00:00:05.00, start: 0.000000, bitrate: 228854 kb/s\n  Stream #0:0[0x1](und): Video: h264 (High 4:4:4 Predictive) (avc1 / 0x31637661), yuv420p(progressive), 1920x1080, 228851 kb/s, 30 fps, 30 tbr, 30 tbn (default)\n    Metadata:\n      handler_name    : VideoHandler\n      vendor_id       : [0][0][0][0]\n[out#0/mp4 @ 000002bb675f9980] Codec AVOption b:a (set bitrate (in bits/s)) has not been used for any stream. The most likely reason is either wrong type (e.g. a video option with no video streams) or that it is a private option of some decoder which was not actually used for any stream.\nStream mapping:\n  Stream #0:0 -> #0:0 (h264 (native) -> h264 (libx264))\nPress [q] to stop, [?] for help\n[libx264 @ 000002bb67e9b840] using cpu capabilities: MMX2 SSE2Fast SSSE3 SSE4.2 AVX FMA3 BMI2 AVX2\n[libx264 @ 000002bb67e9b840] profile High, level 5.0, 4:2:0, 8-bit\n[libx264 @ 000002bb67e9b840] 264 - core 165 r3222 b35605a - H.264/MPEG-4 AVC codec - Copyleft 2003-2025 - http://www.videolan.org/x264.html - options: cabac=1 ref=5 deblock=1:0:0 analyse=0x3:0x113 me=hex subme=8 psy=1 psy_rd=1.00:0.00 mixed_ref=1 me_range=16 chroma_me=1 trellis=2 8x8dct=1 cqm=0 deadzone=21,11 fast_pskip=1 chroma_qp_offset=-2 threads=18 lookahead_threads=3 sliced_threads=0 nr=0 decimate=1 interlaced=0 bluray_compat=0 constrained_intra=0 bframes=3 b_pyramid=2 b_adapt=1 b_bias=0 direct=3 weightb=1 open_gop=0 weightp=2 keyint=250 keyint_min=25 scenecut=40 intra_refresh=0 rc_lookahead=50 rc=cbr mbtree=1 bitrate=8000 ratetol=1.0 qcomp=0.60 qpmin=0 qpmax=69 qpstep=4 vbv_maxrate=8000 vbv_bufsize=8000 nal_hrd=none filler=0 ip_ratio=1.40 aq=1:1.00\nOutput #0, mp4, to 'C:\\Users\\Peter\\Desktop\\stuff\\MIUN\\quantitative_research\\video_compression\\compressed_videos\\BVI-HD\\h264\\8\\DiverFishAndRock_1920x1080_30fps_h264.mp4':\n  Metadata:\n    major_brand     : isom\n    minor_version   : 512\n    compatible_brands: isomiso2avc1mp41\n    encoder         : Lavf62.3.100\n  Stream #0:0(und): Video: h264 (avc1 / 0x31637661), yuv420p(tv, progressive), 1920x1080, q=2-31, 8000 kb/s, 30 fps, 15360 tbn (default)\n    Metadata:\n      encoder         : Lavc62.11.100 libx264\n      handler_name    : VideoHandler\n      vendor_id       : [0][0][0][0]\n    Side data:\n      cpb: bitrate max/min/avg: 8000000/0/8000000 buffer size: 8000000 vbv_delay: N/A\nframe=    0 fps=0.0 q=0.0 size=       0KiB time=N/A bitrate=N/A speed=N/A elapsed=0:00:00.52    \nframe=    0 fps=0.0 q=0.0 size=       0KiB time=N/A bitrate=N/A speed=N/A elapsed=0:00:01.06    \nframe=    0 fps=0.0 q=0.0 size=       0KiB time=N/A bitrate=N/A speed=N/A elapsed=0:00:01.64    \nframe=    9 fps=4.0 q=27.0 size=     256KiB time=00:00:00.23 bitrate=8989.5kbits/s speed=0.104x elapsed=0:00:02.24    \nframe=   27 fps=9.5 q=26.0 size=     512KiB time=00:00:00.66 bitrate=6292.0kbits/s speed=0.235x elapsed=0:00:02.83    \nframe=   33 fps=9.6 q=26.0 size=     768KiB time=00:00:01.03 bitrate=6088.9kbits/s speed=0.301x elapsed=0:00:03.43    \nframe=   45 fps= 11 q=27.0 size=    1024KiB time=00:00:01.43 bitrate=5852.8kbits/s speed=0.358x elapsed=0:00:04.00    \nframe=   63 fps= 14 q=26.0 size=    1536KiB time=00:00:01.96 bitrate=6398.3kbits/s speed=0.432x elapsed=0:00:04.55    \nframe=   74 fps= 15 q=26.0 size=    1792KiB time=00:00:02.40 bitrate=6116.9kbits/s speed=0.472x elapsed=0:00:05.08    \nframe=   93 fps= 17 q=26.0 size=    2560KiB time=00:00:03.03 bitrate=6913.8kbits/s speed=0.541x elapsed=0:00:05.60    \nframe=  110 fps= 18 q=26.0 size=    3072KiB time=00:00:03.60 bitrate=6990.6kbits/s speed=0.583x elapsed=0:00:06.17    \nframe=  117 fps= 17 q=25.0 size=    3328KiB time=00:00:03.83 bitrate=7112.2kbits/s speed=0.57x elapsed=0:00:06.72    \nframe=  130 fps= 18 q=23.0 size=    3584KiB time=00:00:04.26 bitrate=6881.4kbits/s speed=0.586x elapsed=0:00:07.27    \n[mp4 @ 000002bb675f9a80] Starting second pass: moving the moov atom to the beginning of the file\n[out#0/mp4 @ 000002bb675f9980] video:4407KiB audio:0KiB subtitle:0KiB other streams:0KiB global headers:0KiB muxing overhead: 0.060071%\nframe=  150 fps= 19 q=-1.0 Lsize=    4410KiB time=00:00:04.93 bitrate=7322.8kbits/s speed=0.634x elapsed=0:00:07.78    \n[libx264 @ 000002bb67e9b840] frame I:1     Avg QP:22.14  size:108221\n[libx264 @ 000002bb67e9b840] frame P:38    Avg QP:22.93  size: 58427\n[libx264 @ 000002bb67e9b840] frame B:111   Avg QP:24.83  size: 19674\n[libx264 @ 000002bb67e9b840] consecutive B-frames:  1.3%  0.0%  0.0% 98.7%\n[libx264 @ 000002bb67e9b840] mb I  I16..4: 38.2% 54.5%  7.2%\n[libx264 @ 000002bb67e9b840] mb P  I16..4:  1.2%  9.4%  1.1%  P16..4: 52.6% 17.0% 10.4%  0.0%  0.0%    skip: 8.4%\n[libx264 @ 000002bb67e9b840] mb B  I16..4:  0.1%  1.2%  0.2%  B16..8: 52.4%  6.7%  1.3%  direct: 4.0%  skip:34.1%  L0:43.4% L1:50.0% BI: 6.6%\n[libx264 @ 000002bb67e9b840] 8x8 transform intra:77.1% inter:69.9%\n[libx264 @ 000002bb67e9b840] direct mvs  spatial:91.0% temporal:9.0%\n[libx264 @ 000002bb67e9b840] coded y,uvDC,uvAC intra: 73.7% 80.4% 40.5% inter: 15.7% 30.3% 0.7%\n[libx264 @ 000002bb67e9b840] i16 v,h,dc,p:  6% 29% 10% 55%\n[libx264 @ 000002bb67e9b840] i8 v,h,dc,ddl,ddr,vr,hd,vl,hu: 10%  9%  6%  8% 15% 12% 16% 10% 14%\n[libx264 @ 000002bb67e9b840] i4 v,h,dc,ddl,ddr,vr,hd,vl,hu:  8%  9%  9%  8% 16% 12% 16%  9% 14%\n[libx264 @ 000002bb67e9b840] i8c dc,h,v,p: 40% 27% 17% 16%\n[libx264 @ 000002bb67e9b840] Weighted P-Frames: Y:13.2% UV:0.0%\n[libx264 @ 000002bb67e9b840] ref P L0: 47.6% 18.6% 19.1%  7.4%  6.7%  0.6%\n[libx264 @ 000002bb67e9b840] ref B L0: 83.1% 12.0%  3.9%  1.0%\n[libx264 @ 000002bb67e9b840] ref B L1: 95.1%  4.9%\n[libx264 @ 000002bb67e9b840] kb/s:7219.61\n",
  "seconds": 8.057223081588745,
  "probe_out": {}
}